<?xml version="1.0" encoding="UTF-8" standalone="no"?>
<svg
   xmlns:dc="http://purl.org/dc/elements/1.1/"
   xmlns:cc="http://creativecommons.org/ns#"
   xmlns:rdf="http://www.w3.org/1999/02/22-rdf-syntax-ns#"
   xmlns:svg="http://www.w3.org/2000/svg"
   xmlns="http://www.w3.org/2000/svg"
   xmlns:sodipodi="http://sodipodi.sourceforge.net/DTD/sodipodi-0.dtd"
   xmlns:inkscape="http://www.inkscape.org/namespaces/inkscape"
   width="589pt"
   height="96pt"
   viewBox="0 0 589 96"
   version="1.1"
   id="svg4532"
   sodipodi:docname="br.svg"
   inkscape:version="0.92.3 (2405546, 2018-03-11)">
  <metadata
     id="metadata4538">
    <rdf:RDF>
      <cc:Work
         rdf:about="">
        <dc:format>image/svg+xml</dc:format>
        <dc:type
           rdf:resource="http://purl.org/dc/dcmitype/StillImage" />
      </cc:Work>
    </rdf:RDF>
  </metadata>
  <defs
     id="defs4536" />
  <sodipodi:namedview
     pagecolor="#ffffff"
     bordercolor="#666666"
     borderopacity="1"
     objecttolerance="10"
     gridtolerance="10"
     guidetolerance="10"
     inkscape:pageopacity="0"
     inkscape:pageshadow="2"
     inkscape:window-width="1659"
     inkscape:window-height="941"
     id="namedview4534"
     showgrid="false"
     inkscape:zoom="1.1065365"
     inkscape:cx="392.66667"
     inkscape:cy="64"
     inkscape:window-x="0"
     inkscape:window-y="0"
     inkscape:window-maximized="0"
     inkscape:current-layer="svg4532" />
  <g
     id="#010101ff"
     style="fill:#420301;fill-opacity:1">
    <path
       d="m 414.52,0 h 14.99 c 22.74,1.66 45.48,7.59 64.97,19.69 4.27,2.62 8.29,5.61 12.35,8.56 3.16,-3.57 6.17,-7.27 9.09,-11.04 6.85,5.36 13.75,10.67 20.96,15.54 6.44,-4.8 13.28,-9.75 21.4,-11.05 8.9,-1.23 18.64,0.41 25.78,6.14 3.34,2.51 5.52,6.9 4.08,11.06 -2.28,8.86 -11.56,13.85 -20.11,14.72 -13.03,1.29 -25.66,-4.03 -36.24,-11.21 -8.3,6.15 -15.87,13.21 -23.74,19.89 -3.82,-4.23 -7.79,-8.3 -12.06,-12.06 -5.52,6.69 -11.6,12.91 -17.91,18.86 -11.51,10.33 -25.94,17.3 -41.06,20.38 -14.53,2.9 -29.46,0.92 -43.8,-2.11 -18.71,-4.06 -37.06,-9.71 -54.96,-16.49 -1.41,-0.35 -3.08,-1.42 -4.33,-0.16 -4.93,3.74 -8.93,8.53 -13.24,12.93 -6.5,-3.27 -12.97,-6.57 -19.51,-9.73 -6.13,4.84 -11.98,10.01 -17.47,15.56 -7.25,-5.34 -14.66,-10.55 -22.68,-14.66 -1.71,-1.25 -3.6,0.1 -5.26,0.7 -11.82,5.42 -23.99,10.07 -36.36,14.07 -9.83,3.19 -20.05,5.45 -30.43,5.52 C 174.84,95.2 160.59,93.63 147.06,89.39 124.97,82.06 102.4,72.54 86.61,54.77 81.4,59.73 76.35,64.84 71.35,69.99 66.81,63.71 62.48,57.25 57.4,51.38 49.43,56.87 40.69,61.84 30.94,63.12 18.34,65.39 4.81,57.89 0,46.03 V 40.8 c 1.92,-4.59 4.24,-9.32 8.52,-12.16 9.92,-7.21 23.51,-6.3 34.35,-1.75 8.27,3.21 15.14,8.88 22.11,14.18 9.24,-5.55 17.57,-12.55 25.66,-19.65 3.38,4.47 7.28,8.51 11.39,12.31 7.11,-5.53 14.23,-11.12 22.02,-15.69 20.92,-12.37 46.24,-16.61 70.19,-13.07 23.36,3.48 45.59,12.16 66.64,22.63 6.14,-4.38 12.28,-8.76 18.07,-13.62 4.68,2.72 9.35,5.45 14.02,8.19 5.27,-4.32 10.39,-8.84 15.32,-13.56 9.11,5.71 18.39,11.13 27.92,16.1 6.26,-3.65 12.52,-7.33 19.25,-10.03 19.91,-8.1 41.09,-13.24 62.58,-14.43 L 414.52,0 m -40.67,13.84 c -10.92,3.27 -21.47,7.88 -31.27,13.67 2.63,0.84 5.23,1.8 7.79,2.83 1.59,0.61 3.18,1.29 4.85,1.67 3.25,-1.05 6.13,-2.99 9.24,-4.39 14.31,-6.79 29.61,-12.11 45.53,-13.08 25.51,-2.41 51.2,3.65 74.59,13.63 C 481,24.08 475.85,21.9 470.91,19.94 458.23,15.51 445.27,11.66 431.93,9.77 412.55,6.94 392.75,8.98 373.85,13.84 m -207.62,2.05 4.82,1.35 c 16.28,1.9 32.19,5.98 48.04,10.04 5.88,1.69 11.78,3.32 17.51,5.47 0.45,0.12 1.34,0.37 1.79,0.49 2.44,0.98 4.91,1.88 7.36,2.83 0.69,-0.42 2.05,-1.26 2.74,-1.68 C 222.5,23.27 194.36,17.61 166.23,15.89 m 131.47,8.63 c 7.25,3.43 14.33,7.22 21.71,10.39 1.64,-1.2 3.3,-2.37 4.94,-3.57 -7.37,-2.95 -14.64,-6.14 -22,-9.08 -1.87,-0.79 -3.16,1.51 -4.65,2.26 M 107.23,36.31 c -0.06,0.31 -0.17,0.91 -0.22,1.22 15.35,12.22 33.9,19.36 52.12,26.13 13.28,5.17 27.79,5.67 41.86,5.16 10.96,-0.38 21.97,-2.02 32.22,-6.06 -9.63,-4.61 -20.31,-6.39 -30.64,-8.79 9.39,-3.33 19.14,-5.98 27.95,-10.71 -12.65,-4.9 -25.48,-9.31 -38.4,-13.4 -13.32,-4.12 -27.08,-7.6 -41.13,-7.24 -15.44,0.06 -31.79,3.32 -43.76,13.69 m 283.76,-10.3 c -10.07,1.28 -20.19,3.72 -29.11,8.7 10.98,3.15 22.06,5.92 33.17,8.59 -9.46,2.34 -18.94,4.83 -27.87,8.79 -0.43,0.4 -1.28,1.19 -1.7,1.59 8.4,2.87 16.86,5.63 25.54,7.57 11.82,2.65 23.73,5.52 35.92,5.54 12.95,0.1 25.94,-2.16 38.09,-6.63 8.8,-3.23 16.74,-8.38 24.01,-14.24 -20.82,-10.76 -43.35,-19.36 -66.97,-20.67 -10.35,-0.9 -20.76,-0.36 -31.08,0.76 M 271.83,25.79 c -1.67,1.39 -3.43,2.66 -5.2,3.9 3.39,1.47 6.69,3.22 10.24,4.26 1.83,-1.08 3.49,-2.42 5.29,-3.55 -3.4,-1.63 -6.73,-3.45 -10.33,-4.61 m 269.98,9.82 c 10.53,5.62 22.9,11.1 34.95,7.21 3.45,-1.09 8.58,-4.53 6.13,-8.64 -2.12,-3.25 -6.31,-4.17 -9.81,-5.21 -10.78,-3 -22.27,0.43 -31.27,6.64 m -28.4,-5.68 c -0.38,0.42 -1.15,1.27 -1.53,1.7 4.5,3.6 9.08,7.1 13.46,10.85 0.57,-0.86 1.22,-1.7 1.7,-2.63 -4.53,-3.33 -9.14,-6.54 -13.63,-9.92 m -226.83,3.03 c -1.28,1.24 -2.57,2.46 -3.85,3.68 6.21,2.29 12.29,4.92 18.49,7.24 2.71,1.08 4.89,-1.38 7.1,-2.53 -6.76,-2.49 -13.44,-5.21 -19.99,-8.21 -0.44,-0.05 -1.31,-0.14 -1.75,-0.18 m 38.17,4.24 c 3.92,1.39 7.69,3.16 11.57,4.64 2.69,1.07 4.92,-1.47 7.17,-2.51 -4.1,-2.2 -8.48,-3.86 -12.89,-5.3 -2.21,0.3 -3.91,2.18 -5.85,3.17 M 12.57,38.15 c -2.35,1.2 -4.64,2.53 -6.71,4.18 0.15,2.03 -0.25,4.22 0.54,6.14 4.43,6.89 12.67,10.29 20.64,10.53 10,-0.53 18.89,-5.64 27.3,-10.63 C 50.52,43.37 45.02,39.69 39,37.89 30.35,35.6 21.22,36.14 12.57,38.15 m 238.84,0.25 c 4.15,1.72 8.37,3.29 12.3,5.5 0.91,-0.79 1.83,-1.58 2.75,-2.39 -3.71,-1.31 -7.23,-3.05 -10.89,-4.46 -1.56,-0.78 -3.1,0.26 -4.16,1.35 M 73.87,40.71 c -1.67,1.25 -3.37,2.47 -5.05,3.7 3.29,3.15 6.53,6.35 9.66,9.67 1.21,-1.23 2.42,-2.45 3.64,-3.65 -2.72,-3.26 -4.93,-7.01 -8.25,-9.72 m 269.79,3.89 c 5.13,1.97 10.06,4.88 15.6,5.44 2.04,-1.13 4.19,-2.06 6.31,-3.04 -2.37,-0.99 -4.78,-1.84 -7.17,-2.73 -0.46,-0.13 -1.37,-0.39 -1.82,-0.51 -2.25,-0.88 -4.51,-1.71 -6.76,-2.55 -2.02,1.19 -4.06,2.33 -6.16,3.39 m -71.42,-0.58 c -0.91,0.82 -1.81,1.63 -2.7,2.46 5.93,2.38 11.82,4.85 17.68,7.4 0.76,-0.51 2.28,-1.52 3.04,-2.02 -6,-2.64 -12.07,-5.1 -18.02,-7.84 m 40.64,-0.16 c -1.37,0.97 -2.77,1.9 -4.18,2.81 4.67,1.86 9.27,3.96 14.11,5.36 1.9,-0.46 3.49,-1.73 5.21,-2.63 -4.97,-2.02 -9.82,-4.58 -15.14,-5.54 m -78.1,2 c -2.16,1.34 -4.4,2.52 -6.6,3.77 2.09,0.51 4.18,1.07 6.27,1.63 1.05,0.33 2.1,0.65 3.15,0.96 l 1.03,0.49 c 2.87,0.93 5.73,1.94 8.72,2.45 1.36,-0.97 2.76,-1.91 4.14,-2.87 -1.35,-0.68 -2.7,-1.34 -4.05,-2 -4.26,-1.37 -8.21,-3.69 -12.66,-4.43 m 93.85,8.74 c 4.2,1.23 8.18,3.13 12.37,4.37 1.85,-0.66 3.53,-1.69 5.27,-2.58 -3.91,-1.28 -7.62,-3.1 -11.55,-4.32 -2.35,-0.73 -4.13,1.62 -6.09,2.53 M 105.51,53.67 c 0.89,1.07 1.79,2.13 2.82,3.06 9.76,8.4 21.36,14.37 33.32,18.97 15.48,5.63 31.59,10.87 48.27,10.33 18.46,-0.46 36.38,-5.68 53.71,-11.69 2.89,-1.02 5.77,-2.11 8.56,-3.39 -0.68,-0.31 -2.04,-0.93 -2.72,-1.24 -3.29,-1.59 -6.68,-2.97 -10.01,-4.45 -6.77,3.64 -13.83,6.68 -20.97,9.5 -7.27,2.55 -14.77,4.68 -22.48,5.24 -5.72,0.1 -11.47,0.27 -17.18,-0.21 -21.31,-2.97 -42.29,-9.24 -61.24,-19.52 -4.06,-2.15 -7.74,-5.02 -12.08,-6.6 m 151.16,1.14 c -1.31,0.97 -2.65,1.9 -3.98,2.84 5.11,1.86 9.94,4.45 15.03,6.3 1.92,-0.66 3.73,-1.59 5.59,-2.4 -5.47,-2.4 -10.75,-5.53 -16.64,-6.74 m 35.88,1.83 c 0.69,0.13 2.08,0.4 2.78,0.54 4,2.02 8.13,3.76 12.16,5.71 1.21,-0.79 2.42,-1.57 3.65,-2.35 -5.13,-1.67 -9.86,-4.38 -15,-5.97 -0.9,0.52 -2.69,1.55 -3.59,2.07 m 55.11,5 c 24.43,9.24 49.86,18.29 76.36,17.42 13.98,0.6 28.16,-2.36 40.65,-8.7 -9.46,1.55 -18.88,3.48 -28.47,3.93 -10.04,1.75 -20.21,0.17 -30.18,-1.25 -17.46,-3.14 -34.68,-7.66 -51.4,-13.58 -2.54,-1.2 -4.74,1.29 -6.96,2.18 m -34.35,3.88 c 3.91,2.06 7.83,4.16 12,5.66 1.22,-1.11 2.45,-2.2 3.7,-3.27 -3.94,-1.7 -8.04,-3.05 -11.89,-4.96 -1.28,0.85 -2.54,1.72 -3.81,2.57 m -38.93,1.79 c 5.71,2.51 11.18,5.55 16.97,7.9 1.28,-1.27 2.6,-2.51 3.91,-3.76 -5.34,-2.42 -10.63,-4.93 -15.93,-7.44 -1.74,0.97 -3.46,1.98 -4.95,3.3 z"
       id="path4529"
       inkscape:connector-curvature="0"
       style="opacity:1;fill:#420301;fill-opacity:1" />
  </g>
</svg>
